{"title":"Transformers.4.Age.Of.Extinction.2014.TS.XViD-johnyoung","uid":10536180,"size":1780445009,"categoryP":"video","categoryS":"movies","magnet":"?xt=urn:btih:c260a39f3295b3f5de54c79ec0dc5beb4fb4b9c1&amp;dn=Transformers.4.Age.Of.Extinction.2014.TS.XViD-johnyoung&amp;tr=udp%3A%2F%2Ftracker.openbittorrent.com%3A80&amp;tr=udp%3A%2F%2Fopen.demonii.com%3A1337&amp;tr=udp%3A%2F%2Ftracker.coppersurfer.tk%3A6969&amp;tr=udp%3A%2F%2Fexodus.desync.com%3A6969","seeders":19,"leechers":7,"uploader":"xxxlavalxxx","files":-1,"time":1405171084,"description":"[IMG]http://i.imgur.com/Qumtkcm.jpg[/IMG]\n &lt;a href=&quot;\nhttp://www.imdb.com/title/tt2109248/&quot; rel=&quot;nofollow&quot; target=&quot;_NEW&quot;&gt;\nhttp://www.imdb.com/title/tt2109248/&lt;/a&gt;\n\n\nAn automobile mechanic and his daughter make a discovery that brings down the Autobots - and a paranoid government official - on them.\n\nDirector: Michael Bay\nWriter: Ehren Kruger\nStars: Mark Wahlberg, Nicola Peltz, Jack Reynor\nGenres: Action | Adventure | Sci-Fi\nCountry: USA\nLanguage: English\n\n\n\nFormat                                   : AVI\nFormat/Info                              : Audio Video Interleave\nFile size                                : 1.60 GiB\nDuration                                 : 2h 37mn\nOverall bit rate                         : 1 450 Kbps\nWriting library                          : VirtualDub build 32839/release\n\nVideo\nID                                       : 0\nFormat                                   : MPEG-4 Visual\nFormat profile                           : Advanced Simple@L5\nFormat settings, BVOP                    : 2\nFormat settings, QPel                    : Yes\nFormat settings, GMC                     : No warppoints\nFormat settings, Matrix                  : Default (H.263)\nMuxing mode                              : Packed bitstream\nCodec ID                                 : XVID\nCodec ID/Hint                            : XviD\nDuration                                 : 2h 37mn\nBit rate                                 : 1 311 Kbps\nWidth                                    : 720 pixels\nHeight                                   : 342 pixels\nDisplay aspect ratio                     : 2.105\nFrame rate                               : 29.970 fps\nColor space                              : YUV\nChroma subsampling                       : 4:2:0\nBit depth                                : 8 bits\nScan type                                : Progressive\nCompression mode                         : Lossy\nBits/(Pixel*Frame)                       : 0.178\nStream size                              : 1.45 GiB (90%)\nWriting library                          : XviD 64\n\nAudio\nID                                       : 1\nFormat                                   : MPEG Audio\nFormat version                           : Version 1\nFormat profile                           : Layer 3\nCodec ID                                 : 55\nCodec ID/Hint                            : MP3\nDuration                                 : 2h 37mn\nBit rate mode                            : Constant\nBit rate                                 : 128 Kbps\nChannel(s)                               : 2 channels\nSampling rate                            : 44.1 KHz\nCompression mode                         : Lossy\nDelay relative to video                  : 18ms\nStream size                              : 144 MiB (9%)\nAlignment                                : Split accross interleaves\nInterleave, duration                     : 34 ms (1.01 video frame)\nInterleave, preload duration             : 500 ms\n\n\nscreens\n &lt;a href=&quot;\nhttp://i.imgur.com/k7GO5Xv.jpg&quot; rel=&quot;nofollow&quot; target=&quot;_NEW&quot;&gt;\nhttp://i.imgur.com/k7GO5Xv.jpg&lt;/a&gt; &lt;a href=&quot;\nhttp://i.imgur.com/3Wbt0BJ.jpg&quot; rel=&quot;nofollow&quot; target=&quot;_NEW&quot;&gt;\nhttp://i.imgur.com/3Wbt0BJ.jpg&lt;/a&gt; &lt;a href=&quot;\nhttp://i.imgur.com/5ETPCFE.jpg&quot; rel=&quot;nofollow&quot; target=&quot;_NEW&quot;&gt;\nhttp://i.imgur.com/5ETPCFE.jpg&lt;/a&gt; &lt;a href=&quot;\nhttp://i.imgur.com/oW2kjJJ.jpg&quot; rel=&quot;nofollow&quot; target=&quot;_NEW&quot;&gt;\nhttp://i.imgur.com/oW2kjJJ.jpg&lt;/a&gt; &lt;a href=&quot;\nhttp://i.imgur.com/XNC6yt7.jpg&quot; rel=&quot;nofollow&quot; target=&quot;_NEW&quot;&gt;\nhttp://i.imgur.com/XNC6yt7.jpg&lt;/a&gt; &lt;a href=&quot;\nhttp://i.imgur.com/Zh2Afhk.jpg&quot; rel=&quot;nofollow&quot; target=&quot;_NEW&quot;&gt;\nhttp://i.imgur.com/Zh2Afhk.jpg&lt;/a&gt; &lt;a href=&quot;\nhttp://i.imgur.com/AdvsEkh.jpg&quot; rel=&quot;nofollow&quot; target=&quot;_NEW&quot;&gt;\nhttp://i.imgur.com/AdvsEkh.jpg&lt;/a&gt; &lt;a href=&quot;\nhttp://i.imgur.com/YQI2cgt.jpg&quot; rel=&quot;nofollow&quot; target=&quot;_NEW&quot;&gt;\nhttp://i.imgur.com/YQI2cgt.jpg&lt;/a&gt;","torrent":{"xt":"urn:btih:c260a39f3295b3f5de54c79ec0dc5beb4fb4b9c1","amp;dn":"Transformers.4.Age.Of.Extinction.2014.TS.XViD-johnyoung","amp;tr":["udp%3A%2F%2Ftracker.openbittorrent.com%3A80","udp%3A%2F%2Fopen.demonii.com%3A1337","udp%3A%2F%2Ftracker.coppersurfer.tk%3A6969","udp%3A%2F%2Fexodus.desync.com%3A6969"],"infoHash":"c260a39f3295b3f5de54c79ec0dc5beb4fb4b9c1","infoHashBuffer":{"type":"Buffer","data":[194,96,163,159,50,149,179,245,222,84,199,158,192,220,91,235,79,180,185,193]},"announce":[],"urlList":[]}}